<svg viewbox="0 0 650 281"><g><path  d="M83.7 273.7C 84.6 261.4,85.2 240.2,87.2 228.0C 88.6 219.6,91.9 205.4,96.0 198.0C 101.3 188.2,116.7 175.5,121.5 165.5C 125.3 157.4,125.8 141.8,126.8 133.0C 128.2 120.6,129.4 99.6,130.4 87.2"></path><g class="endarrow" transform="translate(130,87) rotate(4)"><use xlink:href="#endarrow"></use></g><path class="route " d="M83.7 273.7C 84.6 261.4,85.2 240.2,87.2 228.0C 88.6 219.6,91.9 205.4,96.0 198.0C 101.3 188.2,116.7 175.5,121.5 165.5C 125.3 157.4,125.8 141.8,126.8 133.0C 128.2 120.6,129.4 99.6,130.4 87.2"></path></g></svg>